<svg xmlns="http://www.w3.org/2000/svg" viewBox="0 0 1280 320"><defs><linearGradient id="tile" x1="0" y1="0" x2="0" y2="1"><stop offset="0" stop-color="#323A44"/><stop offset="1" stop-color="#171A1F"/></linearGradient><linearGradient id="panel" x1="0" y1="0" x2="0" y2="1"><stop offset="0" stop-color="#262C34"/><stop offset="1" stop-color="#121418"/></linearGradient></defs><rect x="1" y="1" width="1278" height="318" rx="32" fill="url(#panel)" stroke="#FFFFFF" stroke-opacity="0.08" stroke-width="2"/><g transform="translate(56 48) scale(0.875)"><g transform="translate(16 16)"><path d="M40 0H148.00Q160 0 168.49 8.49L215.51 55.51Q224 64 224 76.00V184A40 40 0 0 1 184 224H40A40 40 0 0 1 0 184V40A40 40 0 0 1 40 0Z" fill="url(#tile)"/><path d="M40 0H148.00Q160 0 168.49 8.49L215.51 55.51Q224 64 224 76.00V184A40 40 0 0 1 184 224H40A40 40 0 0 1 0 184V40A40 40 0 0 1 40 0Z" fill="none" stroke="#FFFFFF" stroke-opacity="0.1" stroke-width="2"/></g><path d="M89.19 98.90A58 58 0 1 0 166.81 98.90" fill="none" stroke="#23D18B" stroke-width="22" stroke-linecap="round"/><rect x="111.00" y="46" width="34" height="74" rx="4" fill="#E6EDF3"/></g><path d="M356.8 124.9V151.7H368.7Q377.2 151.7 380.6 148.8Q384.1 145.9 384.1 138.7Q384.1 131.4 380.5 128.2Q376.9 124.9 368.7 124.9ZM356.8 89.7V110.7H368.7Q375.5 110.7 378.3 108.3Q381.2 105.9 381.2 100.3Q381.2 94.7 378.3 92.2Q375.4 89.7 368.7 89.7ZM339.6 75.5H368.7Q383.8 75.5 391.4 81.2Q399.0 86.9 399.0 98.3Q399.0 107.0 394.5 111.9Q390.0 116.8 381.3 117.6Q391.7 118.7 396.9 124.6Q402.2 130.5 402.2 141.2Q402.2 154.3 394.3 160.1Q386.4 166.0 368.7 166.0H339.6Z M444.0 111.0Q437.6 111.0 434.0 116.6Q430.3 122.2 430.3 132.2Q430.3 142.1 434.0 147.7Q437.6 153.3 444.0 153.3Q450.4 153.3 454.0 147.7Q457.6 142.1 457.6 132.2Q457.6 122.2 454.0 116.6Q450.4 111.0 444.0 111.0ZM412.6 132.2Q412.6 115.7 421.1 106.1Q429.6 96.6 444.0 96.6Q458.4 96.6 466.9 106.1Q475.4 115.7 475.4 132.2Q475.4 148.6 466.9 158.2Q458.4 167.8 444.0 167.8Q429.6 167.8 421.1 158.2Q412.6 148.6 412.6 132.2Z M518.6 111.0Q512.2 111.0 508.6 116.6Q505.0 122.2 505.0 132.2Q505.0 142.1 508.6 147.7Q512.2 153.3 518.6 153.3Q525.0 153.3 528.7 147.7Q532.3 142.1 532.3 132.2Q532.3 122.2 528.7 116.6Q525.0 111.0 518.6 111.0ZM487.2 132.2Q487.2 115.7 495.7 106.1Q504.3 96.6 518.6 96.6Q533.0 96.6 541.5 106.1Q550.0 115.7 550.0 132.2Q550.0 148.6 541.5 158.2Q533.0 167.8 518.6 167.8Q504.3 167.8 495.7 158.2Q487.2 148.6 487.2 132.2Z" fill="#E6EDF3"/><path d="M580.8 124.9V151.7H592.7Q601.2 151.7 604.6 148.8Q608.0 145.9 608.0 138.7Q608.0 131.4 604.5 128.2Q600.9 124.9 592.7 124.9ZM580.8 89.7V110.7H592.7Q599.4 110.7 602.3 108.3Q605.2 105.9 605.2 100.3Q605.2 94.7 602.3 92.2Q599.3 89.7 592.7 89.7ZM563.5 75.5H592.7Q607.7 75.5 615.3 81.2Q622.9 86.9 622.9 98.3Q622.9 107.0 618.4 111.9Q614.0 116.8 605.3 117.6Q615.7 118.7 620.9 124.6Q626.1 130.5 626.1 141.2Q626.1 154.3 618.3 160.1Q610.4 166.0 592.7 166.0H563.5Z M667.9 111.0Q661.6 111.0 657.9 116.6Q654.3 122.2 654.3 132.2Q654.3 142.1 657.9 147.7Q661.6 153.3 667.9 153.3Q674.3 153.3 678.0 147.7Q681.6 142.1 681.6 132.2Q681.6 122.2 678.0 116.6Q674.3 111.0 667.9 111.0ZM636.6 132.2Q636.6 115.7 645.1 106.1Q653.6 96.6 667.9 96.6Q682.3 96.6 690.8 106.1Q699.3 115.7 699.3 132.2Q699.3 148.6 690.8 158.2Q682.3 167.8 667.9 167.8Q653.6 167.8 645.1 158.2Q636.6 148.6 636.6 132.2Z M742.6 111.0Q736.2 111.0 732.6 116.6Q728.9 122.2 728.9 132.2Q728.9 142.1 732.6 147.7Q736.2 153.3 742.6 153.3Q749.0 153.3 752.6 147.7Q756.3 142.1 756.3 132.2Q756.3 122.2 752.6 116.6Q749.0 111.0 742.6 111.0ZM711.2 132.2Q711.2 115.7 719.7 106.1Q728.2 96.6 742.6 96.6Q757.0 96.6 765.5 106.1Q774.0 115.7 774.0 132.2Q774.0 148.6 765.5 158.2Q757.0 167.8 742.6 167.8Q728.2 167.8 719.7 158.2Q711.2 148.6 711.2 132.2Z M821.7 78.9V98.2H844.9V111.8H821.7V143.9Q821.7 148.4 823.9 150.4Q826.1 152.4 831.3 152.4H844.9V166.0H830.0Q814.7 166.0 809.4 161.1Q804.0 156.3 804.0 143.1V111.8H786.6V98.2H804.0V78.9Z" fill="#23D18B"/><path d="M342.1 209.9V218.4H345.9Q348.1 218.4 349.2 217.3Q350.4 216.2 350.4 214.2Q350.4 212.1 349.2 211.0Q348.1 209.9 345.9 209.9ZM339.0 207.4H345.9Q349.7 207.4 351.7 209.1Q353.6 210.8 353.6 214.2Q353.6 217.5 351.7 219.2Q349.7 220.9 345.9 220.9H342.1V230.0H339.0Z M364.2 215.0Q361.9 215.0 360.6 216.7Q359.3 218.5 359.3 221.5Q359.3 224.6 360.6 226.3Q361.9 228.1 364.2 228.1Q366.4 228.1 367.7 226.3Q369.0 224.6 369.0 221.5Q369.0 218.5 367.7 216.8Q366.4 215.0 364.2 215.0ZM364.2 212.6Q367.8 212.6 369.9 215.0Q372.0 217.4 372.0 221.5Q372.0 225.7 369.9 228.1Q367.8 230.4 364.2 230.4Q360.5 230.4 358.5 228.1Q356.4 225.7 356.4 221.5Q356.4 217.4 358.5 215.0Q360.5 212.6 364.2 212.6Z M375.0 213.0H377.7L381.2 226.3L384.7 213.0H388.0L391.5 226.3L394.9 213.0H397.7L393.3 230.0H390.0L386.3 216.1L382.7 230.0H379.4Z M416.4 220.8V222.2H403.6Q403.8 225.1 405.4 226.6Q406.9 228.1 409.7 228.1Q411.3 228.1 412.8 227.7Q414.3 227.3 415.8 226.5V229.1Q414.3 229.8 412.7 230.1Q411.1 230.4 409.5 230.4Q405.5 230.4 403.1 228.1Q400.7 225.7 400.7 221.7Q400.7 217.5 403.0 215.1Q405.2 212.6 409.0 212.6Q412.5 212.6 414.4 214.8Q416.4 217.0 416.4 220.8ZM413.7 220.0Q413.6 217.7 412.4 216.4Q411.1 215.0 409.1 215.0Q406.7 215.0 405.3 216.3Q403.9 217.6 403.7 220.0Z M430.8 215.7Q430.4 215.4 429.8 215.2Q429.3 215.1 428.6 215.1Q426.2 215.1 425.0 216.7Q423.7 218.2 423.7 221.1V230.0H420.9V213.0H423.7V215.7Q424.6 214.1 426.0 213.4Q427.4 212.6 429.4 212.6Q429.7 212.6 430.0 212.7Q430.4 212.7 430.8 212.8Z M434.5 226.2H437.7V228.8L435.2 233.6H433.2L434.5 228.8Z  M467.1 208.1V211.1Q465.4 210.3 463.8 209.9Q462.3 209.5 460.9 209.5Q458.4 209.5 457.0 210.4Q455.7 211.4 455.7 213.2Q455.7 214.7 456.6 215.5Q457.5 216.2 460.0 216.7L461.8 217.1Q465.2 217.7 466.9 219.4Q468.5 221.0 468.5 223.8Q468.5 227.0 466.3 228.7Q464.1 230.4 459.8 230.4Q458.2 230.4 456.4 230.1Q454.6 229.7 452.7 229.0V225.9Q454.5 226.9 456.3 227.4Q458.1 228.0 459.8 228.0Q462.5 228.0 463.9 226.9Q465.3 225.9 465.3 224.0Q465.3 222.3 464.3 221.4Q463.3 220.4 460.9 220.0L459.1 219.6Q455.6 218.9 454.1 217.5Q452.6 216.0 452.6 213.4Q452.6 210.4 454.7 208.7Q456.8 207.0 460.5 207.0Q462.1 207.0 463.8 207.3Q465.4 207.6 467.1 208.1Z M476.3 209.9V227.5H480.0Q484.7 227.5 486.9 225.4Q489.0 223.2 489.0 218.7Q489.0 214.1 486.9 212.0Q484.7 209.9 480.0 209.9ZM473.3 207.4H479.5Q486.1 207.4 489.2 210.1Q492.3 212.9 492.3 218.7Q492.3 224.5 489.2 227.3Q486.1 230.0 479.5 230.0H473.3Z  M519.1 213.7V216.3Q517.9 215.7 516.7 215.3Q515.5 215.0 514.3 215.0Q511.6 215.0 510.1 216.7Q508.6 218.4 508.6 221.5Q508.6 224.6 510.1 226.4Q511.6 228.1 514.3 228.1Q515.5 228.1 516.7 227.8Q517.9 227.4 519.1 226.8V229.3Q517.9 229.9 516.6 230.2Q515.4 230.4 514.0 230.4Q510.2 230.4 507.9 228.0Q505.7 225.6 505.7 221.5Q505.7 217.4 507.9 215.0Q510.2 212.6 514.2 212.6Q515.5 212.6 516.7 212.9Q517.9 213.2 519.1 213.7Z M531.6 221.5Q528.2 221.5 526.9 222.2Q525.6 223.0 525.6 224.9Q525.6 226.4 526.6 227.2Q527.6 228.1 529.3 228.1Q531.6 228.1 533.0 226.5Q534.4 224.8 534.4 222.1V221.5ZM537.2 220.3V230.0H534.4V227.4Q533.4 229.0 532.0 229.7Q530.6 230.4 528.5 230.4Q525.9 230.4 524.4 229.0Q522.8 227.5 522.8 225.1Q522.8 222.2 524.8 220.8Q526.7 219.3 530.5 219.3H534.4V219.0Q534.4 217.1 533.1 216.1Q531.9 215.0 529.6 215.0Q528.1 215.0 526.7 215.3Q525.4 215.7 524.1 216.4V213.8Q525.6 213.2 527.1 212.9Q528.5 212.6 529.9 212.6Q533.5 212.6 535.4 214.5Q537.2 216.5 537.2 220.3Z M552.7 215.7Q552.3 215.4 551.7 215.2Q551.2 215.1 550.5 215.1Q548.1 215.1 546.9 216.7Q545.6 218.2 545.6 221.1V230.0H542.8V213.0H545.6V215.7Q546.5 214.1 547.9 213.4Q549.3 212.6 551.3 212.6Q551.6 212.6 551.9 212.7Q552.3 212.7 552.7 212.8Z M566.8 215.6V206.4H569.6V230.0H566.8V227.5Q565.9 229.0 564.6 229.7Q563.2 230.4 561.4 230.4Q558.3 230.4 556.4 228.0Q554.4 225.5 554.4 221.5Q554.4 217.5 556.4 215.1Q558.3 212.6 561.4 212.6Q563.2 212.6 564.6 213.4Q565.9 214.1 566.8 215.6ZM557.3 221.5Q557.3 224.6 558.6 226.4Q559.8 228.1 562.1 228.1Q564.3 228.1 565.5 226.4Q566.8 224.6 566.8 221.5Q566.8 218.5 565.5 216.7Q564.3 215.0 562.1 215.0Q559.8 215.0 558.6 216.7Q557.3 218.5 557.3 221.5Z  M592.9 221.5Q589.5 221.5 588.2 222.2Q586.9 223.0 586.9 224.9Q586.9 226.4 587.9 227.2Q588.9 228.1 590.5 228.1Q592.9 228.1 594.3 226.5Q595.7 224.8 595.7 222.1V221.5ZM598.4 220.3V230.0H595.7V227.4Q594.7 229.0 593.3 229.7Q591.9 230.4 589.8 230.4Q587.2 230.4 585.7 229.0Q584.1 227.5 584.1 225.1Q584.1 222.2 586.0 220.8Q588.0 219.3 591.8 219.3H595.7V219.0Q595.7 217.1 594.4 216.1Q593.1 215.0 590.8 215.0Q589.4 215.0 588.0 215.3Q586.6 215.7 585.4 216.4V213.8Q586.9 213.2 588.3 212.9Q589.8 212.6 591.1 212.6Q594.8 212.6 596.6 214.5Q598.4 216.5 598.4 220.3Z M618.3 219.8V230.0H615.5V219.9Q615.5 217.5 614.5 216.3Q613.6 215.1 611.7 215.1Q609.5 215.1 608.2 216.5Q606.9 217.9 606.9 220.4V230.0H604.1V213.0H606.9V215.7Q607.9 214.2 609.2 213.4Q610.6 212.6 612.4 212.6Q615.3 212.6 616.8 214.4Q618.3 216.3 618.3 219.8Z M635.0 215.6V206.4H637.8V230.0H635.0V227.5Q634.1 229.0 632.8 229.7Q631.4 230.4 629.5 230.4Q626.5 230.4 624.5 228.0Q622.6 225.5 622.6 221.5Q622.6 217.5 624.5 215.1Q626.5 212.6 629.5 212.6Q631.4 212.6 632.8 213.4Q634.1 214.1 635.0 215.6ZM625.5 221.5Q625.5 224.6 626.8 226.4Q628.0 228.1 630.2 228.1Q632.4 228.1 633.7 226.4Q635.0 224.6 635.0 221.5Q635.0 218.5 633.7 216.7Q632.4 215.0 630.2 215.0Q628.0 215.0 626.8 216.7Q625.5 218.5 625.5 221.5Z  M664.2 213.5V216.2Q663.0 215.6 661.7 215.3Q660.4 215.0 659.1 215.0Q657.0 215.0 656.0 215.6Q654.9 216.2 654.9 217.5Q654.9 218.5 655.7 219.0Q656.4 219.6 658.7 220.1L659.6 220.3Q662.6 220.9 663.8 222.1Q665.1 223.2 665.1 225.3Q665.1 227.7 663.2 229.1Q661.3 230.4 658.1 230.4Q656.7 230.4 655.2 230.2Q653.8 229.9 652.1 229.4V226.5Q653.7 227.3 655.2 227.7Q656.7 228.1 658.1 228.1Q660.1 228.1 661.2 227.4Q662.2 226.8 662.2 225.5Q662.2 224.4 661.4 223.8Q660.7 223.2 658.1 222.6L657.1 222.4Q654.5 221.9 653.4 220.7Q652.2 219.6 652.2 217.6Q652.2 215.2 653.9 213.9Q655.6 212.6 658.7 212.6Q660.3 212.6 661.7 212.9Q663.0 213.1 664.2 213.5Z M684.0 220.8V222.2H671.2Q671.4 225.1 672.9 226.6Q674.5 228.1 677.3 228.1Q678.9 228.1 680.4 227.7Q681.9 227.3 683.4 226.5V229.1Q681.9 229.8 680.3 230.1Q678.7 230.4 677.1 230.4Q673.0 230.4 670.7 228.1Q668.3 225.7 668.3 221.7Q668.3 217.5 670.5 215.1Q672.8 212.6 676.6 212.6Q680.0 212.6 682.0 214.8Q684.0 217.0 684.0 220.8ZM681.2 220.0Q681.2 217.7 679.9 216.4Q678.7 215.0 676.6 215.0Q674.3 215.0 672.9 216.3Q671.5 217.6 671.3 220.0Z M698.4 215.7Q697.9 215.4 697.4 215.2Q696.8 215.1 696.2 215.1Q693.8 215.1 692.5 216.7Q691.3 218.2 691.3 221.1V230.0H688.5V213.0H691.3V215.7Q692.2 214.1 693.6 213.4Q695.0 212.6 697.0 212.6Q697.3 212.6 697.6 212.7Q698.0 212.7 698.4 212.8Z M701.3 213.0H704.1V230.0H701.3ZM701.3 206.4H704.1V210.0H701.3Z M717.6 221.5Q714.3 221.5 713.0 222.2Q711.7 223.0 711.7 224.9Q711.7 226.4 712.6 227.2Q713.6 228.1 715.3 228.1Q717.6 228.1 719.0 226.5Q720.4 224.8 720.4 222.1V221.5ZM723.2 220.3V230.0H720.4V227.4Q719.5 229.0 718.0 229.7Q716.6 230.4 714.6 230.4Q712.0 230.4 710.4 229.0Q708.9 227.5 708.9 225.1Q708.9 222.2 710.8 220.8Q712.7 219.3 716.5 219.3H720.4V219.0Q720.4 217.1 719.1 216.1Q717.9 215.0 715.6 215.0Q714.1 215.0 712.8 215.3Q711.4 215.7 710.1 216.4V213.8Q711.6 213.2 713.1 212.9Q714.5 212.6 715.9 212.6Q719.6 212.6 721.4 214.5Q723.2 216.5 723.2 220.3Z M728.9 206.4H731.7V230.0H728.9Z  M759.6 213.7V216.3Q758.4 215.7 757.2 215.3Q756.0 215.0 754.8 215.0Q752.1 215.0 750.6 216.7Q749.1 218.4 749.1 221.5Q749.1 224.6 750.6 226.4Q752.1 228.1 754.8 228.1Q756.0 228.1 757.2 227.8Q758.4 227.4 759.6 226.8V229.3Q758.4 229.9 757.2 230.2Q755.9 230.4 754.5 230.4Q750.7 230.4 748.4 228.0Q746.2 225.6 746.2 221.5Q746.2 217.4 748.5 215.0Q750.7 212.6 754.7 212.6Q756.0 212.6 757.2 212.9Q758.5 213.2 759.6 213.7Z M771.0 215.0Q768.8 215.0 767.5 216.7Q766.2 218.5 766.2 221.5Q766.2 224.6 767.5 226.3Q768.8 228.1 771.0 228.1Q773.2 228.1 774.5 226.3Q775.8 224.6 775.8 221.5Q775.8 218.5 774.5 216.8Q773.2 215.0 771.0 215.0ZM771.0 212.6Q774.6 212.6 776.7 215.0Q778.8 217.4 778.8 221.5Q778.8 225.7 776.7 228.1Q774.6 230.4 771.0 230.4Q767.4 230.4 765.3 228.1Q763.2 225.7 763.2 221.5Q763.2 217.4 765.3 215.0Q767.4 212.6 771.0 212.6Z M797.5 219.8V230.0H794.7V219.9Q794.7 217.5 793.8 216.3Q792.8 215.1 791.0 215.1Q788.7 215.1 787.4 216.5Q786.1 217.9 786.1 220.4V230.0H783.3V213.0H786.1V215.7Q787.1 214.2 788.5 213.4Q789.8 212.6 791.6 212.6Q794.5 212.6 796.0 214.4Q797.5 216.3 797.5 219.8Z M813.9 213.5V216.2Q812.7 215.6 811.4 215.3Q810.1 215.0 808.8 215.0Q806.7 215.0 805.7 215.6Q804.6 216.2 804.6 217.5Q804.6 218.5 805.4 219.0Q806.1 219.6 808.4 220.1L809.3 220.3Q812.3 220.9 813.5 222.1Q814.8 223.2 814.8 225.3Q814.8 227.7 812.9 229.1Q811.0 230.4 807.8 230.4Q806.4 230.4 804.9 230.2Q803.5 229.9 801.8 229.4V226.5Q803.4 227.3 804.9 227.7Q806.4 228.1 807.8 228.1Q809.8 228.1 810.9 227.4Q811.9 226.8 811.9 225.5Q811.9 224.4 811.1 223.8Q810.4 223.2 807.8 222.6L806.8 222.4Q804.2 221.9 803.1 220.7Q801.9 219.6 801.9 217.6Q801.9 215.2 803.6 213.9Q805.3 212.6 808.4 212.6Q810.0 212.6 811.4 212.9Q812.7 213.1 813.9 213.5Z M825.8 215.0Q823.5 215.0 822.2 216.7Q820.9 218.5 820.9 221.5Q820.9 224.6 822.2 226.3Q823.5 228.1 825.8 228.1Q828.0 228.1 829.3 226.3Q830.6 224.6 830.6 221.5Q830.6 218.5 829.3 216.8Q828.0 215.0 825.8 215.0ZM825.8 212.6Q829.4 212.6 831.5 215.0Q833.6 217.4 833.6 221.5Q833.6 225.7 831.5 228.1Q829.4 230.4 825.8 230.4Q822.1 230.4 820.1 228.1Q818.0 225.7 818.0 221.5Q818.0 217.4 820.1 215.0Q822.1 212.6 825.8 212.6Z M838.2 206.4H841.0V230.0H838.2Z M861.3 220.8V222.2H848.5Q848.7 225.1 850.2 226.6Q851.8 228.1 854.5 228.1Q856.1 228.1 857.6 227.7Q859.2 227.3 860.6 226.5V229.1Q859.1 229.8 857.6 230.1Q856.0 230.4 854.4 230.4Q850.3 230.4 847.9 228.1Q845.6 225.7 845.6 221.7Q845.6 217.5 847.8 215.1Q850.1 212.6 853.9 212.6Q857.3 212.6 859.3 214.8Q861.3 217.0 861.3 220.8ZM858.5 220.0Q858.5 217.7 857.2 216.4Q856.0 215.0 853.9 215.0Q851.6 215.0 850.2 216.3Q848.8 217.6 848.6 220.0Z M866.6 226.2H869.8V228.8L867.3 233.6H865.3L866.6 228.8Z  M892.1 215.0Q889.9 215.0 888.6 216.7Q887.3 218.5 887.3 221.5Q887.3 224.6 888.6 226.3Q889.9 228.1 892.1 228.1Q894.4 228.1 895.7 226.3Q897.0 224.6 897.0 221.5Q897.0 218.5 895.7 216.8Q894.4 215.0 892.1 215.0ZM892.1 212.6Q895.8 212.6 897.8 215.0Q899.9 217.4 899.9 221.5Q899.9 225.7 897.8 228.1Q895.8 230.4 892.1 230.4Q888.5 230.4 886.4 228.1Q884.4 225.7 884.4 221.5Q884.4 217.4 886.4 215.0Q888.5 212.6 892.1 212.6Z M902.5 213.0H905.5L910.8 227.3L916.1 213.0H919.0L912.7 230.0H908.9Z M937.4 220.8V222.2H924.6Q924.8 225.1 926.3 226.6Q927.9 228.1 930.6 228.1Q932.2 228.1 933.7 227.7Q935.2 227.3 936.7 226.5V229.1Q935.2 229.8 933.7 230.1Q932.1 230.4 930.5 230.4Q926.4 230.4 924.0 228.1Q921.7 225.7 921.7 221.7Q921.7 217.5 923.9 215.1Q926.2 212.6 930.0 212.6Q933.4 212.6 935.4 214.8Q937.4 217.0 937.4 220.8ZM934.6 220.0Q934.6 217.7 933.3 216.4Q932.1 215.0 930.0 215.0Q927.7 215.0 926.3 216.3Q924.9 217.6 924.7 220.0Z M951.8 215.7Q951.3 215.4 950.8 215.2Q950.2 215.1 949.5 215.1Q947.2 215.1 945.9 216.7Q944.6 218.2 944.6 221.1V230.0H941.8V213.0H944.6V215.7Q945.5 214.1 946.9 213.4Q948.3 212.6 950.4 212.6Q950.6 212.6 951.0 212.7Q951.3 212.7 951.8 212.8Z  M967.3 208.2V213.0H973.0V215.2H967.3V224.4Q967.3 226.5 967.9 227.1Q968.4 227.7 970.2 227.7H973.0V230.0H970.2Q967.0 230.0 965.7 228.8Q964.5 227.6 964.5 224.4V215.2H962.5V213.0H964.5V208.2Z M990.8 219.8V230.0H988.0V219.9Q988.0 217.5 987.1 216.3Q986.1 215.1 984.3 215.1Q982.0 215.1 980.7 216.5Q979.4 217.9 979.4 220.4V230.0H976.6V206.4H979.4V215.7Q980.4 214.2 981.8 213.4Q983.1 212.6 984.9 212.6Q987.8 212.6 989.3 214.4Q990.8 216.3 990.8 219.8Z M1010.9 220.8V222.2H998.0Q998.2 225.1 999.8 226.6Q1001.3 228.1 1004.1 228.1Q1005.7 228.1 1007.2 227.7Q1008.7 227.3 1010.2 226.5V229.1Q1008.7 229.8 1007.1 230.1Q1005.6 230.4 1003.9 230.4Q999.9 230.4 997.5 228.1Q995.1 225.7 995.1 221.7Q995.1 217.5 997.4 215.1Q999.6 212.6 1003.5 212.6Q1006.9 212.6 1008.9 214.8Q1010.9 217.0 1010.9 220.8ZM1008.1 220.0Q1008.0 217.7 1006.8 216.4Q1005.5 215.0 1003.5 215.0Q1001.2 215.0 999.8 216.3Q998.4 217.6 998.1 220.0Z  M1039.4 219.8V230.0H1036.6V219.9Q1036.6 217.5 1035.6 216.3Q1034.7 215.1 1032.8 215.1Q1030.6 215.1 1029.3 216.5Q1028.0 217.9 1028.0 220.4V230.0H1025.2V213.0H1028.0V215.7Q1029.0 214.2 1030.3 213.4Q1031.7 212.6 1033.5 212.6Q1036.4 212.6 1037.9 214.4Q1039.4 216.3 1039.4 219.8Z M1059.4 220.8V222.2H1046.6Q1046.8 225.1 1048.4 226.6Q1049.9 228.1 1052.7 228.1Q1054.3 228.1 1055.8 227.7Q1057.3 227.3 1058.8 226.5V229.1Q1057.3 229.8 1055.7 230.1Q1054.1 230.4 1052.5 230.4Q1048.5 230.4 1046.1 228.1Q1043.7 225.7 1043.7 221.7Q1043.7 217.5 1046.0 215.1Q1048.2 212.6 1052.0 212.6Q1055.4 212.6 1057.4 214.8Q1059.4 217.0 1059.4 220.8ZM1056.6 220.0Q1056.6 217.7 1055.4 216.4Q1054.1 215.0 1052.1 215.0Q1049.7 215.0 1048.3 216.3Q1046.9 217.6 1046.7 220.0Z M1066.8 208.2V213.0H1072.5V215.2H1066.8V224.4Q1066.8 226.5 1067.3 227.1Q1067.9 227.7 1069.6 227.7H1072.5V230.0H1069.6Q1066.4 230.0 1065.2 228.8Q1064.0 227.6 1064.0 224.4V215.2H1061.9V213.0H1064.0V208.2Z M1074.5 213.0H1077.3L1080.8 226.3L1084.3 213.0H1087.6L1091.0 226.3L1094.5 213.0H1097.3L1092.9 230.0H1089.6L1085.9 216.1L1082.3 230.0H1079.0Z M1108.1 215.0Q1105.8 215.0 1104.5 216.7Q1103.2 218.5 1103.2 221.5Q1103.2 224.6 1104.5 226.3Q1105.8 228.1 1108.1 228.1Q1110.3 228.1 1111.6 226.3Q1112.9 224.6 1112.9 221.5Q1112.9 218.5 1111.6 216.8Q1110.3 215.0 1108.1 215.0ZM1108.1 212.6Q1111.7 212.6 1113.8 215.0Q1115.9 217.4 1115.9 221.5Q1115.9 225.7 1113.8 228.1Q1111.7 230.4 1108.1 230.4Q1104.4 230.4 1102.4 228.1Q1100.3 225.7 1100.3 221.5Q1100.3 217.4 1102.4 215.0Q1104.4 212.6 1108.1 212.6Z M1130.3 215.7Q1129.8 215.4 1129.3 215.2Q1128.7 215.1 1128.1 215.1Q1125.7 215.1 1124.4 216.7Q1123.2 218.2 1123.2 221.1V230.0H1120.4V213.0H1123.2V215.7Q1124.0 214.1 1125.5 213.4Q1126.9 212.6 1128.9 212.6Q1129.2 212.6 1129.5 212.7Q1129.9 212.7 1130.3 212.8Z M1133.1 206.4H1135.9V220.4L1144.2 213.0H1147.8L1138.8 221.0L1148.2 230.0H1144.5L1135.9 221.7V230.0H1133.1Z" fill="#9DA7B3"/></svg>
